<svg width="416" height="148" viewBox="0 0 416 148" fill="none" xmlns="http://www.w3.org/2000/svg">
<path d="M28.3276 21H87V92.9505C87 92.9505 48.4152 136.356 17 84.6546" stroke="white" stroke-width="24.7" stroke-linecap="square"/>
<path fill-rule="evenodd" clip-rule="evenodd" d="M282.898 16.1102C276.453 13.7177 268.372 12.5214 258.655 12.5214H223.572V34.6014H252.503V34.4208H258.216C263.44 34.4208 267.225 35.3973 269.568 37.3505C271.912 39.3036 273.084 42.0135 273.084 45.4803C273.084 50.5096 271.668 54.0009 268.836 55.954C266.004 57.9071 262.366 58.8837 257.923 58.8837H252.503V58.6014H223.572V119.601H252.503V80.6366H259.827L282.532 119.601H315.345L284.144 72.9462C287.903 70.8466 291.126 68.4052 293.812 65.6219C296.546 62.7899 298.646 59.5917 300.11 56.0272C301.575 52.4628 302.308 48.5077 302.308 44.162C302.308 37.1796 300.672 31.3446 297.4 26.6571C294.178 21.9696 289.344 18.454 282.898 16.1102Z" fill="white"/>
<path fill-rule="evenodd" clip-rule="evenodd" d="M353.238 33.3561V12.4852H324.355V68.9958L353.238 33.3561ZM324.355 94.6121V118.851H353.238V83.2748L361.751 78.182L382.776 118.851H415.225L382.267 60.139L415.807 12.4852H390.913L324.355 94.6121Z" fill="white"/>
<path fill-rule="evenodd" clip-rule="evenodd" d="M159.926 98.5331L160.447 98.5331L160.193 97.6457L159.926 98.5331ZM137.679 118.601L107.51 118.601L142.447 11.0819L181.045 11.0819L216.421 118.601L186.146 118.601L171.862 68.557L168.887 57.2245C168.399 55.3202 167.691 52.6102 166.763 49.0946C165.835 45.5302 164.907 41.8681 163.98 38.1083C163.101 34.2997 162.417 31.1747 161.929 28.7333C161.49 31.1747 160.855 34.202 160.025 37.8153C159.243 41.3798 158.413 44.9198 157.534 48.4354C156.704 51.9511 155.972 54.8808 155.337 57.2245L152.212 69.1281L152.066 69.1712L152.136 69.418L150.723 74.8026L150.894 74.8026L137.679 118.601Z" fill="white"/>
</svg>
