<svg width="1512" height="982" viewBox="0 0 1512 982" fill="none" xmlns="http://www.w3.org/2000/svg">
<g clip-path="url(#clip0_390_63)">
<rect width="1512" height="982" fill="white"/>
<path d="M-8.67243 23.8114H50V95.7619C50 95.7619 11.4152 139.167 -20 87.466" stroke="#F0F2EB" stroke-width="24.7" stroke-linecap="square"/>
<path fill-rule="evenodd" clip-rule="evenodd" d="M245.898 16.1102C239.453 13.7177 231.372 12.5214 221.655 12.5214H186.572V34.6014H215.503V34.4208H221.216C226.44 34.4208 230.225 35.3973 232.568 37.3505C234.912 39.3036 236.084 42.0135 236.084 45.4803C236.084 50.5096 234.668 54.0009 231.836 55.954C229.004 57.9071 225.366 58.8837 220.923 58.8837H215.503V58.6014H186.572V119.601H215.503V80.6366H222.827L245.532 119.601H278.345L247.144 72.9462C250.903 70.8466 254.126 68.4052 256.812 65.6219C259.546 62.7899 261.646 59.5917 263.11 56.0272C264.575 52.4628 265.308 48.5077 265.308 44.162C265.308 37.1796 263.672 31.3446 260.4 26.6571C257.178 21.9696 252.344 18.454 245.898 16.1102Z" fill="#F0F2EB"/>
<path fill-rule="evenodd" clip-rule="evenodd" d="M316.238 33.3561V12.4852H287.355V68.9958L316.238 33.3561ZM287.355 94.6121V118.851H316.238V83.2748L324.75 78.182L345.776 118.851H378.225L345.267 60.139L378.807 12.4852H353.913L287.355 94.6121Z" fill="#F0F2EB"/>
<path fill-rule="evenodd" clip-rule="evenodd" d="M122.925 98.5331L123.446 98.5331L123.193 97.6457L122.925 98.5331ZM100.679 118.601L70.5097 118.601L105.446 11.0819L144.045 11.0819L179.421 118.601L149.146 118.601L134.861 68.557L131.887 57.2245C131.398 55.3202 130.69 52.6102 129.763 49.0946C128.835 45.5302 127.907 41.8681 126.979 38.1083C126.101 34.2997 125.417 31.1747 124.929 28.7333C124.489 31.1747 123.854 34.202 123.024 37.8153C122.243 41.3798 121.413 44.9198 120.534 48.4354C119.704 51.9511 118.972 54.8808 118.337 57.2245L115.212 69.1281L115.066 69.1712L115.136 69.418L113.723 74.8026L113.894 74.8026L100.679 118.601Z" fill="#F0F2EB"/>
<path d="M419.328 23.8114H478V95.7619C478 95.7619 439.415 139.167 408 87.466" stroke="#F0F2EB" stroke-width="24.7" stroke-linecap="square"/>
<path fill-rule="evenodd" clip-rule="evenodd" d="M673.898 16.1102C667.453 13.7177 659.372 12.5214 649.655 12.5214H614.572V34.6014H643.503V34.4208H649.216C654.44 34.4208 658.225 35.3973 660.568 37.3505C662.912 39.3036 664.084 42.0135 664.084 45.4803C664.084 50.5096 662.668 54.0009 659.836 55.954C657.004 57.9071 653.366 58.8837 648.923 58.8837H643.503V58.6014H614.572V119.601H643.503V80.6366H650.827L673.532 119.601H706.345L675.144 72.9462C678.903 70.8466 682.126 68.4052 684.812 65.6219C687.546 62.7899 689.646 59.5917 691.11 56.0272C692.575 52.4628 693.308 48.5077 693.308 44.162C693.308 37.1796 691.672 31.3446 688.4 26.6571C685.178 21.9696 680.344 18.454 673.898 16.1102Z" fill="#F0F2EB"/>
<path fill-rule="evenodd" clip-rule="evenodd" d="M744.238 33.3558V12.4852H715.355V68.9955L744.238 33.3558ZM715.355 94.6118V118.851H744.238V83.2748L752.75 78.182L773.776 118.851H806.225L773.267 60.139L806.807 12.4852H781.913L715.355 94.6118Z" fill="#F0F2EB"/>
<path fill-rule="evenodd" clip-rule="evenodd" d="M550.925 98.5331L551.446 98.5331L551.193 97.6457L550.925 98.5331ZM528.679 118.601L498.51 118.601L533.446 11.0819L572.045 11.0819L607.421 118.601L577.146 118.601L562.861 68.557L559.887 57.2245C559.398 55.3202 558.69 52.6102 557.763 49.0946C556.835 45.5302 555.907 41.8681 554.979 38.1083C554.101 34.2997 553.417 31.1747 552.929 28.7333C552.489 31.1747 551.854 34.202 551.024 37.8153C550.243 41.3798 549.413 44.9198 548.534 48.4354C547.704 51.9511 546.972 54.8808 546.337 57.2245L543.212 69.1281L543.066 69.1712L543.136 69.418L541.723 74.8026L541.894 74.8026L528.679 118.601Z" fill="#F0F2EB"/>
<path d="M854.328 23.8114H913V95.7619C913 95.7619 874.415 139.167 843 87.466" stroke="#F0F2EB" stroke-width="24.7" stroke-linecap="square"/>
<path fill-rule="evenodd" clip-rule="evenodd" d="M1108.9 16.1102C1102.45 13.7177 1094.37 12.5214 1084.66 12.5214H1049.57V34.6014H1078.5V34.4208H1084.22C1089.44 34.4208 1093.22 35.3973 1095.57 37.3505C1097.91 39.3036 1099.08 42.0135 1099.08 45.4803C1099.08 50.5096 1097.67 54.0009 1094.84 55.954C1092 57.9071 1088.37 58.8837 1083.92 58.8837H1078.5V58.6014H1049.57V119.601H1078.5V80.6366H1085.83L1108.53 119.601H1141.34L1110.14 72.9462C1113.9 70.8466 1117.13 68.4052 1119.81 65.6219C1122.55 62.7899 1124.65 59.5917 1126.11 56.0272C1127.58 52.4628 1128.31 48.5077 1128.31 44.162C1128.31 37.1796 1126.67 31.3446 1123.4 26.6571C1120.18 21.9696 1115.34 18.454 1108.9 16.1102Z" fill="#F0F2EB"/>
<path fill-rule="evenodd" clip-rule="evenodd" d="M1179.24 33.3561V12.4852H1150.35V68.9957L1179.24 33.3561ZM1150.35 94.612V118.851H1179.24V83.2748L1187.75 78.182L1208.78 118.851H1241.22L1208.27 60.139L1241.81 12.4852H1216.91L1150.35 94.612Z" fill="#F0F2EB"/>
<path fill-rule="evenodd" clip-rule="evenodd" d="M985.925 98.5331L986.446 98.5331L986.193 97.6461L985.925 98.5331ZM963.679 118.601L933.51 118.601L968.446 11.0819L1007.04 11.0819L1042.42 118.601L1012.15 118.601L997.864 68.5676L994.887 57.2245C994.398 55.3202 993.69 52.6102 992.763 49.0946C991.835 45.5302 990.907 41.8681 989.979 38.1083C989.101 34.2997 988.417 31.1747 987.929 28.7333C987.489 31.1747 986.854 34.202 986.024 37.8153C985.243 41.3798 984.413 44.9198 983.534 48.4354C982.704 51.9511 981.972 54.8807 981.337 57.2245L978.212 69.1281L978.065 69.1712L978.136 69.4184L976.723 74.8026L976.894 74.8026L963.679 118.601Z" fill="#F0F2EB"/>
<path d="M1293.33 23.8114H1352V95.7619C1352 95.7619 1313.42 139.167 1282 87.466" stroke="#F0F2EB" stroke-width="24.7" stroke-linecap="square"/>
<path fill-rule="evenodd" clip-rule="evenodd" d="M1547.9 16.1102C1541.45 13.7177 1533.37 12.5214 1523.66 12.5214H1488.57V34.6014H1517.5V34.4208H1523.22C1528.44 34.4208 1532.22 35.3973 1534.57 37.3505C1536.91 39.3036 1538.08 42.0135 1538.08 45.4803C1538.08 50.5096 1536.67 54.0009 1533.84 55.954C1531 57.9071 1527.37 58.8837 1522.92 58.8837H1517.5V58.6014H1488.57V119.601H1517.5V80.6366H1524.83L1547.53 119.601H1580.34L1549.14 72.9462C1552.9 70.8466 1556.13 68.4052 1558.81 65.6219C1561.55 62.7899 1563.65 59.5917 1565.11 56.0272C1566.58 52.4628 1567.31 48.5077 1567.31 44.162C1567.31 37.1796 1565.67 31.3446 1562.4 26.6571C1559.18 21.9696 1554.34 18.454 1547.9 16.1102Z" fill="#F0F2EB"/>
<path fill-rule="evenodd" clip-rule="evenodd" d="M1424.93 98.5331L1425.45 98.5331L1425.19 97.6463L1424.93 98.5331ZM1402.68 118.601L1372.51 118.601L1407.45 11.0819L1446.04 11.0819L1481.42 118.601L1451.15 118.601L1436.87 68.5714L1433.89 57.2245C1433.4 55.3202 1432.69 52.6102 1431.76 49.0946C1430.83 45.5302 1429.91 41.8681 1428.98 38.1083C1428.1 34.2997 1427.42 31.1747 1426.93 28.7333C1426.49 31.1747 1425.85 34.202 1425.02 37.8153C1424.24 41.3798 1423.41 44.9198 1422.53 48.4354C1421.7 51.9511 1420.97 54.8808 1420.34 57.2245L1417.21 69.128L1417.07 69.1711L1417.14 69.4186L1415.72 74.8026L1415.89 74.8026L1402.68 118.601Z" fill="#F0F2EB"/>
</g>
<defs>
<clipPath id="clip0_390_63">
<rect width="1512" height="982" fill="white"/>
</clipPath>
</defs>
</svg>
